# xmcd
#
# Track frame offsets: 
#        150
#        27962
#        56186
#        82746
#        112437
#        134956
#        169054
#        194172
#        221650
#        254840
#
# Disc length: 3846 seconds
#
# Revision: 0
# Processed by: cddbd v1.5.2PL0 Copyright (c) Steve Scherf et al.
# Submitted via: ExactAudioCopy v0.95b1
#
DISCID=a70f040a
DTITLE=Ken Arconti  - Samsara Blues 
DYEAR=2003
DGENRE=Blues
TTITLE0=In the Loop
TTITLE1=Rise and Shine
TTITLE2=Turn the Page
TTITLE3=There Once Was an Angel
TTITLE4=At Your Beck and Call
TTITLE5=Detour on Green Street
TTITLE6=Dreamin' About You
TTITLE7=For Those Who Cry Inside
TTITLE8=Samsara Blues
TTITLE9=Until We Meet Again
EXTD=
EXTT0=
EXTT1=
EXTT2=
EXTT3=
EXTT4=
EXTT5=
EXTT6=
EXTT7=
EXTT8=
EXTT9=
PLAYORDER=
